<svg xmlns="http://www.w3.org/2000/svg" width="480" height="480" viewBox="0 0 480 480">
<g opacity="0.85">
<rect x="40" y="50" width="22" height="6" rx="3" transform="rotate(35 51 53)" fill="#FF6F7D"></rect>
<rect x="120" y="80" width="22" height="6" rx="3" transform="rotate(-20 131 83)" fill="#6FC9A8"></rect>
<rect x="220" y="40" width="22" height="6" rx="3" transform="rotate(60 231 43)" fill="#FFE99B"></rect>
<rect x="320" y="70" width="22" height="6" rx="3" transform="rotate(-45 331 73)" fill="#D9C4E8"></rect>
<rect x="410" y="50" width="22" height="6" rx="3" transform="rotate(20 421 53)" fill="#FF6F7D"></rect>
<rect x="60" y="160" width="22" height="6" rx="3" transform="rotate(-30 71 163)" fill="#9FB864"></rect>
<rect x="170" y="180" width="22" height="6" rx="3" transform="rotate(45 181 183)" fill="#FFC9A5"></rect>
<rect x="280" y="150" width="22" height="6" rx="3" transform="rotate(-15 291 153)" fill="#FF6F7D"></rect>
<rect x="380" y="170" width="22" height="6" rx="3" transform="rotate(70 391 173)" fill="#6FC9A8"></rect>
<rect x="30" y="260" width="22" height="6" rx="3" transform="rotate(50 41 263)" fill="#FFE99B"></rect>
<rect x="140" y="290" width="22" height="6" rx="3" transform="rotate(-40 151 293)" fill="#D9C4E8"></rect>
<rect x="250" y="270" width="22" height="6" rx="3" transform="rotate(25 261 273)" fill="#FFC9A5"></rect>
<rect x="360" y="290" width="22" height="6" rx="3" transform="rotate(-10 371 293)" fill="#FF6F7D"></rect>
<rect x="80" y="370" width="22" height="6" rx="3" transform="rotate(15 91 373)" fill="#6FC9A8"></rect>
<rect x="200" y="400" width="22" height="6" rx="3" transform="rotate(-55 211 403)" fill="#FFE99B"></rect>
<rect x="310" y="380" width="22" height="6" rx="3" transform="rotate(40 321 383)" fill="#9FB864"></rect>
<rect x="420" y="400" width="22" height="6" rx="3" transform="rotate(-25 431 403)" fill="#D9C4E8"></rect>
<circle cx="100" cy="120" r="4" fill="#FF6F7D"></circle>
<circle cx="200" cy="240" r="4" fill="#6FC9A8"></circle>
<circle cx="350" cy="220" r="4" fill="#FFE99B"></circle>
<circle cx="430" cy="320" r="4" fill="#D9C4E8"></circle>
<circle cx="80" cy="340" r="4" fill="#FFC9A5"></circle>
<circle cx="260" cy="360" r="4" fill="#9FB864"></circle>
</g>
</svg>